<mxfile host="app.diagrams.net" agent="Mozilla/5.0 (Windows NT 10.0; Win64; x64) AppleWebKit/537.36 (KHTML, like Gecko) Chrome/126.0.0.0 Safari/537.36" version="24.7.4">
  <diagram id="R2lEEEUBdFMjLlhIrx00" name="Page-1">
    <mxGraphModel dx="1900" dy="557" grid="1" gridSize="10" guides="1" tooltips="1" connect="1" arrows="1" fold="1" page="1" pageScale="1" pageWidth="850" pageHeight="1100" math="0" shadow="0" extFonts="Permanent Marker^https://fonts.googleapis.com/css?family=Permanent+Marker">
      <root>
        <mxCell id="0" />
        <mxCell id="1" parent="0" />
        <mxCell id="7yob_-Kx5GwXuWihS_Kb-27" style="edgeStyle=orthogonalEdgeStyle;rounded=0;orthogonalLoop=1;jettySize=auto;html=1;entryX=0;entryY=1;entryDx=0;entryDy=0;" edge="1" parent="1" source="7yob_-Kx5GwXuWihS_Kb-19" target="7yob_-Kx5GwXuWihS_Kb-20">
          <mxGeometry relative="1" as="geometry" />
        </mxCell>
        <mxCell id="7yob_-Kx5GwXuWihS_Kb-29" style="edgeStyle=orthogonalEdgeStyle;rounded=0;orthogonalLoop=1;jettySize=auto;html=1;entryX=0;entryY=0;entryDx=0;entryDy=0;" edge="1" parent="1" source="7yob_-Kx5GwXuWihS_Kb-19" target="7yob_-Kx5GwXuWihS_Kb-24">
          <mxGeometry relative="1" as="geometry" />
        </mxCell>
        <mxCell id="7yob_-Kx5GwXuWihS_Kb-31" style="edgeStyle=orthogonalEdgeStyle;rounded=0;orthogonalLoop=1;jettySize=auto;html=1;entryX=1;entryY=0.5;entryDx=0;entryDy=0;" edge="1" parent="1" source="7yob_-Kx5GwXuWihS_Kb-19" target="7yob_-Kx5GwXuWihS_Kb-22">
          <mxGeometry relative="1" as="geometry" />
        </mxCell>
        <mxCell id="7yob_-Kx5GwXuWihS_Kb-32" style="edgeStyle=orthogonalEdgeStyle;rounded=0;orthogonalLoop=1;jettySize=auto;html=1;entryX=1;entryY=0.5;entryDx=0;entryDy=0;" edge="1" parent="1" source="7yob_-Kx5GwXuWihS_Kb-19" target="7yob_-Kx5GwXuWihS_Kb-23">
          <mxGeometry relative="1" as="geometry" />
        </mxCell>
        <mxCell id="7yob_-Kx5GwXuWihS_Kb-41" style="edgeStyle=orthogonalEdgeStyle;rounded=0;orthogonalLoop=1;jettySize=auto;html=1;" edge="1" parent="1" source="7yob_-Kx5GwXuWihS_Kb-19">
          <mxGeometry relative="1" as="geometry">
            <mxPoint x="320" y="185" as="targetPoint" />
          </mxGeometry>
        </mxCell>
        <mxCell id="7yob_-Kx5GwXuWihS_Kb-19" value="User" style="rounded=0;whiteSpace=wrap;html=1;" vertex="1" parent="1">
          <mxGeometry x="170" y="160" width="110" height="50" as="geometry" />
        </mxCell>
        <mxCell id="7yob_-Kx5GwXuWihS_Kb-20" value="username" style="ellipse;whiteSpace=wrap;html=1;" vertex="1" parent="1">
          <mxGeometry x="270" y="40" width="120" height="50" as="geometry" />
        </mxCell>
        <mxCell id="7yob_-Kx5GwXuWihS_Kb-21" value="&lt;u&gt;user_id&lt;/u&gt;" style="ellipse;whiteSpace=wrap;html=1;" vertex="1" parent="1">
          <mxGeometry x="110" y="40" width="120" height="50" as="geometry" />
        </mxCell>
        <mxCell id="7yob_-Kx5GwXuWihS_Kb-22" value="profile_info" style="ellipse;whiteSpace=wrap;html=1;" vertex="1" parent="1">
          <mxGeometry y="190" width="120" height="50" as="geometry" />
        </mxCell>
        <mxCell id="7yob_-Kx5GwXuWihS_Kb-23" value="role" style="ellipse;whiteSpace=wrap;html=1;" vertex="1" parent="1">
          <mxGeometry y="120" width="120" height="50" as="geometry" />
        </mxCell>
        <mxCell id="7yob_-Kx5GwXuWihS_Kb-24" value="email" style="ellipse;whiteSpace=wrap;html=1;" vertex="1" parent="1">
          <mxGeometry x="220" y="250" width="120" height="50" as="geometry" />
        </mxCell>
        <mxCell id="7yob_-Kx5GwXuWihS_Kb-25" value="password" style="ellipse;whiteSpace=wrap;html=1;" vertex="1" parent="1">
          <mxGeometry x="80" y="250" width="120" height="50" as="geometry" />
        </mxCell>
        <mxCell id="7yob_-Kx5GwXuWihS_Kb-30" style="edgeStyle=orthogonalEdgeStyle;rounded=0;orthogonalLoop=1;jettySize=auto;html=1;entryX=0.625;entryY=0.2;entryDx=0;entryDy=0;entryPerimeter=0;" edge="1" parent="1" source="7yob_-Kx5GwXuWihS_Kb-19" target="7yob_-Kx5GwXuWihS_Kb-25">
          <mxGeometry relative="1" as="geometry" />
        </mxCell>
        <mxCell id="7yob_-Kx5GwXuWihS_Kb-34" style="edgeStyle=orthogonalEdgeStyle;rounded=0;orthogonalLoop=1;jettySize=auto;html=1;entryX=0.57;entryY=1.004;entryDx=0;entryDy=0;entryPerimeter=0;" edge="1" parent="1" source="7yob_-Kx5GwXuWihS_Kb-19" target="7yob_-Kx5GwXuWihS_Kb-21">
          <mxGeometry relative="1" as="geometry" />
        </mxCell>
        <mxCell id="7yob_-Kx5GwXuWihS_Kb-51" style="edgeStyle=orthogonalEdgeStyle;rounded=0;orthogonalLoop=1;jettySize=auto;html=1;" edge="1" parent="1" source="7yob_-Kx5GwXuWihS_Kb-35" target="7yob_-Kx5GwXuWihS_Kb-36">
          <mxGeometry relative="1" as="geometry" />
        </mxCell>
        <mxCell id="7yob_-Kx5GwXuWihS_Kb-52" style="edgeStyle=orthogonalEdgeStyle;rounded=0;orthogonalLoop=1;jettySize=auto;html=1;" edge="1" parent="1" source="7yob_-Kx5GwXuWihS_Kb-35" target="7yob_-Kx5GwXuWihS_Kb-40">
          <mxGeometry relative="1" as="geometry" />
        </mxCell>
        <mxCell id="7yob_-Kx5GwXuWihS_Kb-35" value="Enrollment" style="rounded=0;whiteSpace=wrap;html=1;" vertex="1" parent="1">
          <mxGeometry x="440" y="160" width="130" height="50" as="geometry" />
        </mxCell>
        <mxCell id="7yob_-Kx5GwXuWihS_Kb-36" value="course_id" style="ellipse;whiteSpace=wrap;html=1;" vertex="1" parent="1">
          <mxGeometry x="470" y="270" width="120" height="50" as="geometry" />
        </mxCell>
        <mxCell id="7yob_-Kx5GwXuWihS_Kb-38" value="user_id" style="ellipse;whiteSpace=wrap;html=1;" vertex="1" parent="1">
          <mxGeometry x="590" y="240" width="120" height="50" as="geometry" />
        </mxCell>
        <mxCell id="7yob_-Kx5GwXuWihS_Kb-39" value="&lt;u&gt;enrollment_id&lt;/u&gt;" style="ellipse;whiteSpace=wrap;html=1;" vertex="1" parent="1">
          <mxGeometry x="460" y="60" width="120" height="50" as="geometry" />
        </mxCell>
        <mxCell id="7yob_-Kx5GwXuWihS_Kb-40" value="enrollment_name" style="ellipse;whiteSpace=wrap;html=1;" vertex="1" parent="1">
          <mxGeometry x="590" y="90" width="120" height="50" as="geometry" />
        </mxCell>
        <mxCell id="7yob_-Kx5GwXuWihS_Kb-42" value="one -Many" style="rhombus;whiteSpace=wrap;html=1;" vertex="1" parent="1">
          <mxGeometry x="320" y="145" width="80" height="80" as="geometry" />
        </mxCell>
        <mxCell id="7yob_-Kx5GwXuWihS_Kb-56" style="edgeStyle=orthogonalEdgeStyle;rounded=0;orthogonalLoop=1;jettySize=auto;html=1;entryX=0.077;entryY=0.583;entryDx=0;entryDy=0;entryPerimeter=0;" edge="1" parent="1" source="7yob_-Kx5GwXuWihS_Kb-42" target="7yob_-Kx5GwXuWihS_Kb-35">
          <mxGeometry relative="1" as="geometry" />
        </mxCell>
        <mxCell id="7yob_-Kx5GwXuWihS_Kb-57" style="edgeStyle=orthogonalEdgeStyle;rounded=0;orthogonalLoop=1;jettySize=auto;html=1;entryX=0.383;entryY=1.012;entryDx=0;entryDy=0;entryPerimeter=0;" edge="1" parent="1" source="7yob_-Kx5GwXuWihS_Kb-35" target="7yob_-Kx5GwXuWihS_Kb-39">
          <mxGeometry relative="1" as="geometry" />
        </mxCell>
        <mxCell id="7yob_-Kx5GwXuWihS_Kb-72" style="edgeStyle=orthogonalEdgeStyle;rounded=0;orthogonalLoop=1;jettySize=auto;html=1;" edge="1" parent="1" source="7yob_-Kx5GwXuWihS_Kb-58" target="7yob_-Kx5GwXuWihS_Kb-68">
          <mxGeometry relative="1" as="geometry" />
        </mxCell>
        <mxCell id="7yob_-Kx5GwXuWihS_Kb-75" style="edgeStyle=orthogonalEdgeStyle;rounded=0;orthogonalLoop=1;jettySize=auto;html=1;" edge="1" parent="1" source="7yob_-Kx5GwXuWihS_Kb-58" target="7yob_-Kx5GwXuWihS_Kb-62">
          <mxGeometry relative="1" as="geometry" />
        </mxCell>
        <mxCell id="7yob_-Kx5GwXuWihS_Kb-76" style="edgeStyle=orthogonalEdgeStyle;rounded=0;orthogonalLoop=1;jettySize=auto;html=1;entryX=0;entryY=0.5;entryDx=0;entryDy=0;" edge="1" parent="1" source="7yob_-Kx5GwXuWihS_Kb-58" target="7yob_-Kx5GwXuWihS_Kb-71">
          <mxGeometry relative="1" as="geometry" />
        </mxCell>
        <mxCell id="7yob_-Kx5GwXuWihS_Kb-77" style="edgeStyle=orthogonalEdgeStyle;rounded=0;orthogonalLoop=1;jettySize=auto;html=1;" edge="1" parent="1" source="7yob_-Kx5GwXuWihS_Kb-58" target="7yob_-Kx5GwXuWihS_Kb-67">
          <mxGeometry relative="1" as="geometry" />
        </mxCell>
        <mxCell id="7yob_-Kx5GwXuWihS_Kb-58" value="Coiurses" style="rounded=0;whiteSpace=wrap;html=1;" vertex="1" parent="1">
          <mxGeometry x="200" y="420" width="100" height="40" as="geometry" />
        </mxCell>
        <mxCell id="7yob_-Kx5GwXuWihS_Kb-62" value="couse_name" style="ellipse;whiteSpace=wrap;html=1;" vertex="1" parent="1">
          <mxGeometry x="340" y="370" width="120" height="50" as="geometry" />
        </mxCell>
        <mxCell id="7yob_-Kx5GwXuWihS_Kb-67" value="&lt;u&gt;course_id&lt;/u&gt;" style="ellipse;whiteSpace=wrap;html=1;" vertex="1" parent="1">
          <mxGeometry x="150" y="310" width="120" height="60" as="geometry" />
        </mxCell>
        <mxCell id="7yob_-Kx5GwXuWihS_Kb-68" value="category" style="ellipse;whiteSpace=wrap;html=1;" vertex="1" parent="1">
          <mxGeometry x="380" y="430" width="120" height="40" as="geometry" />
        </mxCell>
        <mxCell id="7yob_-Kx5GwXuWihS_Kb-69" value="end_time" style="ellipse;whiteSpace=wrap;html=1;" vertex="1" parent="1">
          <mxGeometry x="-10" y="460" width="120" height="60" as="geometry" />
        </mxCell>
        <mxCell id="7yob_-Kx5GwXuWihS_Kb-70" value="start_time" style="ellipse;whiteSpace=wrap;html=1;" vertex="1" parent="1">
          <mxGeometry x="10" y="340" width="120" height="60" as="geometry" />
        </mxCell>
        <mxCell id="7yob_-Kx5GwXuWihS_Kb-71" value="instructor_id" style="ellipse;whiteSpace=wrap;html=1;" vertex="1" parent="1">
          <mxGeometry x="340" y="470" width="120" height="40" as="geometry" />
        </mxCell>
        <mxCell id="7yob_-Kx5GwXuWihS_Kb-73" style="edgeStyle=orthogonalEdgeStyle;rounded=0;orthogonalLoop=1;jettySize=auto;html=1;entryX=0.76;entryY=0.943;entryDx=0;entryDy=0;entryPerimeter=0;" edge="1" parent="1" source="7yob_-Kx5GwXuWihS_Kb-58" target="7yob_-Kx5GwXuWihS_Kb-70">
          <mxGeometry relative="1" as="geometry" />
        </mxCell>
        <mxCell id="7yob_-Kx5GwXuWihS_Kb-74" style="edgeStyle=orthogonalEdgeStyle;rounded=0;orthogonalLoop=1;jettySize=auto;html=1;entryX=0.75;entryY=0;entryDx=0;entryDy=0;entryPerimeter=0;" edge="1" parent="1" source="7yob_-Kx5GwXuWihS_Kb-58" target="7yob_-Kx5GwXuWihS_Kb-69">
          <mxGeometry relative="1" as="geometry" />
        </mxCell>
        <mxCell id="7yob_-Kx5GwXuWihS_Kb-81" style="edgeStyle=orthogonalEdgeStyle;rounded=0;orthogonalLoop=1;jettySize=auto;html=1;entryX=0;entryY=1;entryDx=0;entryDy=0;" edge="1" parent="1" source="7yob_-Kx5GwXuWihS_Kb-78" target="7yob_-Kx5GwXuWihS_Kb-35">
          <mxGeometry relative="1" as="geometry" />
        </mxCell>
        <mxCell id="7yob_-Kx5GwXuWihS_Kb-83" style="edgeStyle=orthogonalEdgeStyle;rounded=0;orthogonalLoop=1;jettySize=auto;html=1;entryX=1;entryY=0;entryDx=0;entryDy=0;" edge="1" parent="1" source="7yob_-Kx5GwXuWihS_Kb-78" target="7yob_-Kx5GwXuWihS_Kb-58">
          <mxGeometry relative="1" as="geometry" />
        </mxCell>
        <mxCell id="7yob_-Kx5GwXuWihS_Kb-78" value="oneToMany" style="rhombus;whiteSpace=wrap;html=1;" vertex="1" parent="1">
          <mxGeometry x="360" y="290" width="80" height="70" as="geometry" />
        </mxCell>
        <mxCell id="7yob_-Kx5GwXuWihS_Kb-98" style="edgeStyle=orthogonalEdgeStyle;rounded=0;orthogonalLoop=1;jettySize=auto;html=1;entryX=1;entryY=0.5;entryDx=0;entryDy=0;" edge="1" parent="1" source="7yob_-Kx5GwXuWihS_Kb-84" target="7yob_-Kx5GwXuWihS_Kb-93">
          <mxGeometry relative="1" as="geometry" />
        </mxCell>
        <mxCell id="7yob_-Kx5GwXuWihS_Kb-100" style="edgeStyle=orthogonalEdgeStyle;rounded=0;orthogonalLoop=1;jettySize=auto;html=1;" edge="1" parent="1" source="7yob_-Kx5GwXuWihS_Kb-84" target="7yob_-Kx5GwXuWihS_Kb-95">
          <mxGeometry relative="1" as="geometry" />
        </mxCell>
        <mxCell id="7yob_-Kx5GwXuWihS_Kb-84" value="LearningMaterial" style="rounded=0;whiteSpace=wrap;html=1;" vertex="1" parent="1">
          <mxGeometry x="110" y="650" width="120" height="60" as="geometry" />
        </mxCell>
        <mxCell id="7yob_-Kx5GwXuWihS_Kb-105" style="edgeStyle=orthogonalEdgeStyle;rounded=0;orthogonalLoop=1;jettySize=auto;html=1;" edge="1" parent="1" source="7yob_-Kx5GwXuWihS_Kb-85" target="7yob_-Kx5GwXuWihS_Kb-103">
          <mxGeometry relative="1" as="geometry" />
        </mxCell>
        <mxCell id="7yob_-Kx5GwXuWihS_Kb-109" style="edgeStyle=orthogonalEdgeStyle;rounded=0;orthogonalLoop=1;jettySize=auto;html=1;" edge="1" parent="1" source="7yob_-Kx5GwXuWihS_Kb-85" target="7yob_-Kx5GwXuWihS_Kb-104">
          <mxGeometry relative="1" as="geometry" />
        </mxCell>
        <mxCell id="7yob_-Kx5GwXuWihS_Kb-85" value="Assignment" style="rounded=0;whiteSpace=wrap;html=1;" vertex="1" parent="1">
          <mxGeometry x="330" y="650" width="100" height="60" as="geometry" />
        </mxCell>
        <mxCell id="7yob_-Kx5GwXuWihS_Kb-89" style="edgeStyle=orthogonalEdgeStyle;rounded=0;orthogonalLoop=1;jettySize=auto;html=1;" edge="1" parent="1" source="7yob_-Kx5GwXuWihS_Kb-87" target="7yob_-Kx5GwXuWihS_Kb-84">
          <mxGeometry relative="1" as="geometry" />
        </mxCell>
        <mxCell id="7yob_-Kx5GwXuWihS_Kb-87" value="one-Many" style="rhombus;whiteSpace=wrap;html=1;" vertex="1" parent="1">
          <mxGeometry x="130" y="520" width="80" height="80" as="geometry" />
        </mxCell>
        <mxCell id="7yob_-Kx5GwXuWihS_Kb-88" style="edgeStyle=orthogonalEdgeStyle;rounded=0;orthogonalLoop=1;jettySize=auto;html=1;entryX=0.144;entryY=0.965;entryDx=0;entryDy=0;entryPerimeter=0;" edge="1" parent="1" source="7yob_-Kx5GwXuWihS_Kb-87" target="7yob_-Kx5GwXuWihS_Kb-58">
          <mxGeometry relative="1" as="geometry" />
        </mxCell>
        <mxCell id="7yob_-Kx5GwXuWihS_Kb-91" style="edgeStyle=orthogonalEdgeStyle;rounded=0;orthogonalLoop=1;jettySize=auto;html=1;entryX=0.75;entryY=1;entryDx=0;entryDy=0;" edge="1" parent="1" source="7yob_-Kx5GwXuWihS_Kb-90" target="7yob_-Kx5GwXuWihS_Kb-58">
          <mxGeometry relative="1" as="geometry" />
        </mxCell>
        <mxCell id="7yob_-Kx5GwXuWihS_Kb-92" style="edgeStyle=orthogonalEdgeStyle;rounded=0;orthogonalLoop=1;jettySize=auto;html=1;" edge="1" parent="1" source="7yob_-Kx5GwXuWihS_Kb-90" target="7yob_-Kx5GwXuWihS_Kb-85">
          <mxGeometry relative="1" as="geometry" />
        </mxCell>
        <mxCell id="7yob_-Kx5GwXuWihS_Kb-90" value="one-Many" style="rhombus;whiteSpace=wrap;html=1;" vertex="1" parent="1">
          <mxGeometry x="250" y="520" width="80" height="60" as="geometry" />
        </mxCell>
        <mxCell id="7yob_-Kx5GwXuWihS_Kb-93" value="material_id" style="ellipse;whiteSpace=wrap;html=1;" vertex="1" parent="1">
          <mxGeometry x="-60" y="590" width="120" height="50" as="geometry" />
        </mxCell>
        <mxCell id="7yob_-Kx5GwXuWihS_Kb-94" value="material_type" style="ellipse;whiteSpace=wrap;html=1;" vertex="1" parent="1">
          <mxGeometry x="-80" y="660" width="120" height="60" as="geometry" />
        </mxCell>
        <mxCell id="7yob_-Kx5GwXuWihS_Kb-95" value="material_link" style="ellipse;whiteSpace=wrap;html=1;" vertex="1" parent="1">
          <mxGeometry x="165" y="760" width="120" height="60" as="geometry" />
        </mxCell>
        <mxCell id="7yob_-Kx5GwXuWihS_Kb-96" value="course_id" style="ellipse;whiteSpace=wrap;html=1;" vertex="1" parent="1">
          <mxGeometry y="770" width="120" height="60" as="geometry" />
        </mxCell>
        <mxCell id="7yob_-Kx5GwXuWihS_Kb-97" style="edgeStyle=orthogonalEdgeStyle;rounded=0;orthogonalLoop=1;jettySize=auto;html=1;entryX=0.987;entryY=0.317;entryDx=0;entryDy=0;entryPerimeter=0;" edge="1" parent="1" source="7yob_-Kx5GwXuWihS_Kb-84" target="7yob_-Kx5GwXuWihS_Kb-94">
          <mxGeometry relative="1" as="geometry" />
        </mxCell>
        <mxCell id="7yob_-Kx5GwXuWihS_Kb-99" style="edgeStyle=orthogonalEdgeStyle;rounded=0;orthogonalLoop=1;jettySize=auto;html=1;entryX=0.713;entryY=0.09;entryDx=0;entryDy=0;entryPerimeter=0;" edge="1" parent="1" source="7yob_-Kx5GwXuWihS_Kb-84" target="7yob_-Kx5GwXuWihS_Kb-96">
          <mxGeometry relative="1" as="geometry" />
        </mxCell>
        <mxCell id="7yob_-Kx5GwXuWihS_Kb-101" value="course_id" style="ellipse;whiteSpace=wrap;html=1;" vertex="1" parent="1">
          <mxGeometry x="460" y="590" width="120" height="50" as="geometry" />
        </mxCell>
        <mxCell id="7yob_-Kx5GwXuWihS_Kb-102" value="due_date" style="ellipse;whiteSpace=wrap;html=1;" vertex="1" parent="1">
          <mxGeometry x="470" y="730" width="120" height="50" as="geometry" />
        </mxCell>
        <mxCell id="7yob_-Kx5GwXuWihS_Kb-103" value="assignment_id" style="ellipse;whiteSpace=wrap;html=1;" vertex="1" parent="1">
          <mxGeometry x="490" y="655" width="120" height="50" as="geometry" />
        </mxCell>
        <mxCell id="7yob_-Kx5GwXuWihS_Kb-104" value="instructions" style="ellipse;whiteSpace=wrap;html=1;" vertex="1" parent="1">
          <mxGeometry x="340" y="770" width="120" height="50" as="geometry" />
        </mxCell>
        <mxCell id="7yob_-Kx5GwXuWihS_Kb-107" style="edgeStyle=orthogonalEdgeStyle;rounded=0;orthogonalLoop=1;jettySize=auto;html=1;entryX=0.093;entryY=0.86;entryDx=0;entryDy=0;entryPerimeter=0;" edge="1" parent="1" source="7yob_-Kx5GwXuWihS_Kb-85" target="7yob_-Kx5GwXuWihS_Kb-101">
          <mxGeometry relative="1" as="geometry" />
        </mxCell>
        <mxCell id="7yob_-Kx5GwXuWihS_Kb-108" style="edgeStyle=orthogonalEdgeStyle;rounded=0;orthogonalLoop=1;jettySize=auto;html=1;entryX=0.023;entryY=0.332;entryDx=0;entryDy=0;entryPerimeter=0;" edge="1" parent="1" source="7yob_-Kx5GwXuWihS_Kb-85" target="7yob_-Kx5GwXuWihS_Kb-102">
          <mxGeometry relative="1" as="geometry" />
        </mxCell>
      </root>
    </mxGraphModel>
  </diagram>
</mxfile>
